<svg width="600" height="600" viewBox="0 0 600 600" fill="none" xmlns="http://www.w3.org/2000/svg">
<path fill-rule="evenodd" clip-rule="evenodd" d="M44 166C44 157.163 51.1634 150 60 150H540C548.837 150 556 157.163 556 166V180C556 188.837 548.837 196 540 196H60C51.1634 196 44 188.837 44 180V166ZM44 293C44 284.163 51.1634 277 60 277H540C548.837 277 556 284.163 556 293V307C556 315.837 548.837 323 540 323H60C51.1634 323 44 315.837 44 307V293ZM60 404C51.1634 404 44 411.163 44 420V434C44 442.837 51.1634 450 60 450H540C548.837 450 556 442.837 556 434V420C556 411.163 548.837 404 540 404H60Z" fill="black"/>
</svg>
